<svg width="120" height="48" viewBox="0 0 120 48" fill="none" xmlns="http://www.w3.org/2000/svg">
<path d="M100.295 0.640625H109.991C111.887 0.640625 113.529 1.17538 114.918 2.2449C116.307 3.31442 117.371 4.89731 118.111 6.99357C118.864 9.08982 119.24 11.6781 119.24 14.7583C119.24 17.4321 119.033 19.6674 118.617 21.4642C118.215 23.2609 117.644 24.7476 116.904 25.924C116.164 27.0791 115.294 28.031 114.295 28.7797L112.133 30.8652H104.52L104.481 22.17H109.836C110.446 22.17 110.952 21.9134 111.354 21.4C111.757 20.8866 112.055 20.1593 112.25 19.2182C112.458 18.2556 112.562 17.1112 112.562 15.785C112.562 14.4374 112.464 13.2823 112.27 12.3198C112.075 11.3572 111.789 10.6192 111.413 10.1059C111.049 9.5925 110.576 9.33581 109.991 9.33581H106.954V47.3572H100.295V0.640625ZM112.854 47.3572L107.83 26.6941L114.879 26.6299L120 46.8759V47.3572H112.854Z" fill="#5D675B"/>
<path d="M99.5439 38.6941V47.3572H87.1409V38.6941H99.5439ZM89.4579 0.640625V47.3572H82.7988V0.640625H89.4579ZM97.9278 19.1861V27.5604H87.1409V19.1861H97.9278ZM99.6023 0.640625V9.33581H87.1409V0.640625H99.6023Z" fill="#5D675B"/>
<path d="M75.0388 0.640625V47.3572H68.3602V0.640625H75.0388ZM81.912 0.640625V9.33581H61.6816V0.640625H81.912Z" fill="#5D675B"/>
<path d="M43.0352 0.640625H52.7317C54.6269 0.640625 56.269 1.17538 57.6579 2.2449C59.0468 3.31442 60.1113 4.89731 60.8512 6.99357C61.604 9.08982 61.9805 11.6781 61.9805 14.7583C61.9805 17.4321 61.7728 19.6674 61.3574 21.4642C60.955 23.2609 60.3839 24.7476 59.6439 25.924C58.9041 27.0791 58.0343 28.031 57.0348 28.7797L54.8735 30.8652H47.2604L47.2214 22.17H52.576C53.1861 22.17 53.6923 21.9134 54.0947 21.4C54.4971 20.8866 54.7957 20.1593 54.9904 19.2182C55.1981 18.2556 55.3019 17.1112 55.3019 15.785C55.3019 14.4374 55.2046 13.2823 55.0098 12.3198C54.8151 11.3572 54.5296 10.6192 54.1531 10.1059C53.7897 9.5925 53.3159 9.33581 52.7317 9.33581H49.6943V47.3572H43.0352V0.640625ZM55.594 47.3572L50.5704 26.6941L57.619 26.6299L62.7398 46.8759V47.3572H55.594Z" fill="#5D675B"/>
<path d="M41.5443 20.5027V27.5615C41.5443 30.9198 41.2912 33.8717 40.785 36.4171C40.2787 38.9626 39.5583 41.1016 38.6237 42.8342C37.6891 44.5455 36.5792 45.8396 35.2941 46.7166C34.022 47.5722 32.6071 48 31.0495 48C29.4788 48 28.0509 47.5722 26.7658 46.7166C25.4807 45.8396 24.3709 44.5455 23.4363 42.8342C22.5017 41.1016 21.7812 38.9626 21.275 36.4171C20.7687 33.8717 20.5156 30.9198 20.5156 27.5615V20.5027C20.5156 17.1444 20.7687 14.1818 21.275 11.615C21.7812 9.04813 22.4952 6.90909 23.4168 5.19786C24.3514 3.48663 25.4613 2.19251 26.7464 1.31551C28.0314 0.438503 29.4593 0 31.03 0C32.5877 0 34.0091 0.438503 35.2941 1.31551C36.5922 2.19251 37.7021 3.48663 38.6237 5.19786C39.5453 6.90909 40.2593 9.04813 40.7655 11.615C41.2847 14.1818 41.5443 17.1444 41.5443 20.5027ZM34.7879 27.5615V20.4385C34.7879 18.3422 34.71 16.5562 34.5542 15.0802C34.3985 13.6043 34.1648 12.4064 33.8533 11.4866C33.5417 10.5668 33.1523 9.89305 32.685 9.46524C32.2177 9.03743 31.666 8.82353 31.03 8.82353C30.368 8.82353 29.8033 9.03743 29.336 9.46524C28.8687 9.89305 28.4793 10.5668 28.1677 11.4866C27.8692 12.4064 27.6485 13.6043 27.5057 15.0802C27.3629 16.5562 27.2915 18.3422 27.2915 20.4385V27.5615C27.2915 29.6364 27.3629 31.4118 27.5057 32.8877C27.6485 34.3422 27.8692 35.5401 28.1677 36.4813C28.4793 37.4225 28.8752 38.1176 29.3555 38.5668C29.8358 38.9947 30.4004 39.2086 31.0495 39.2086C31.6725 39.2086 32.2177 38.9947 32.685 38.5668C33.1653 38.1176 33.5547 37.4225 33.8533 36.4813C34.1648 35.5401 34.3985 34.3422 34.5542 32.8877C34.71 31.4118 34.7879 29.6364 34.7879 27.5615Z" fill="#5D675B"/>
<path d="M9.89129 31.5069H4.22521V22.8117H9.89129C10.5533 22.8117 11.0855 22.5444 11.4879 22.0096C11.9033 21.4748 12.2018 20.7369 12.3836 19.7957C12.5783 18.8331 12.6756 17.7529 12.6756 16.5551C12.6756 15.2716 12.5783 14.0845 12.3836 12.9936C12.2018 11.9027 11.9033 11.0257 11.4879 10.3625C11.0855 9.67806 10.5533 9.33581 9.89129 9.33581H6.65909V47.3572H0V0.640625H9.89129C11.8514 0.640625 13.5389 1.32512 14.9538 2.6941C16.3816 4.06308 17.4785 5.94544 18.2444 8.34116C19.0232 10.7155 19.4126 13.4321 19.4126 16.4909C19.4126 19.5069 19.0232 22.1379 18.2444 24.3839C17.4785 26.6299 16.3816 28.3839 14.9538 29.646C13.5389 30.8866 11.8514 31.5069 9.89129 31.5069Z" fill="#5D675B"/>
</svg>
